<svg width="505" height="168" viewBox="0 0 505 168" fill="none" xmlns="http://www.w3.org/2000/svg">
<path d="M212.793 70.1264C185.167 87.5924 157.299 95.0333 127.098 78.7172C116.931 73.2247 106.917 60.2448 125.22 56.9811C142.222 53.9493 161.707 71.2736 163.695 88.1157C166.68 113.39 142.803 127.818 121.209 133.172C87.8009 141.456 53.63 146.862 19.1637 145.651C12.1431 145.404 46.5948 117.733 36.06 128.658C28.6242 136.368 20.4676 140.87 11.1948 145.957C4.51762 149.62 10.031 149.543 15.7476 150.777C25.0383 152.783 36.0635 158.205 42.6073 165.314" stroke="#FF7C3D" stroke-width="5" stroke-linecap="round"/>
<path d="M244.061 19.3551C244.257 18.9631 244.388 18.2445 244.453 17.1991C244.518 16.1538 244.584 15.4351 244.649 15.0431C244.649 11.2211 243.604 8.72214 241.513 7.54614C240.664 7.05614 239.847 6.92547 239.063 7.15414C238.704 7.15414 238.148 7.38281 237.397 7.84014C237.364 8.29747 237.348 9.06514 237.348 10.1431L237.103 11.9561L236.662 16.4641C236.662 16.5295 236.629 17.0031 236.564 17.8851C236.074 23.0138 235.829 26.8521 235.829 29.4001C236.417 29.2695 236.923 28.9918 237.348 28.5671C238.491 27.6198 239.128 27.1135 239.259 27.0481L239.945 26.4111C240.108 26.3785 240.533 25.9865 241.219 25.2351V25.1861L242.15 23.9611L243.13 21.9521C243.391 21.5928 243.702 20.7271 244.061 19.3551ZM229.9 26.7541C229.835 26.6235 229.802 26.3948 229.802 26.0681C229.802 25.7088 229.851 25.3005 229.949 24.8431C230.047 24.3858 230.096 23.8468 230.096 23.2261C230.096 22.6055 230.194 21.8051 230.39 20.8251C230.259 20.6291 230.276 19.8941 230.439 18.6201C230.602 18.3261 230.668 17.9341 230.635 17.4441C230.602 16.9541 230.586 16.5621 230.586 16.2681C230.586 14.8635 230.619 14.0631 230.684 13.8671C230.749 13.6711 230.766 13.2791 230.733 12.6911C230.929 12.4951 231.092 11.7275 231.223 10.3881C230.112 10.4208 229.279 10.1268 228.724 9.50614C228.169 8.85281 227.711 7.93814 227.352 6.76214C227.385 6.56614 227.417 6.38647 227.45 6.22314C227.515 6.02714 227.564 5.86381 227.597 5.73314C227.63 5.60247 227.695 5.47181 227.793 5.34114C227.891 5.17781 227.956 5.06347 227.989 4.99814C228.054 4.90014 228.169 4.78581 228.332 4.65514C228.495 4.49181 228.61 4.39381 228.675 4.36114C228.74 4.29581 228.887 4.19781 229.116 4.06714C229.345 3.90381 229.492 3.80581 229.557 3.77314C229.622 3.70781 229.786 3.59347 230.047 3.43014C230.341 3.23414 230.537 3.10347 230.635 3.03814C230.733 2.87481 230.994 2.76047 231.419 2.69514C231.844 2.59714 232.481 2.36847 233.33 2.00914C233.461 1.87847 234.228 1.66614 235.633 1.37214C237.038 1.04547 238.41 1.15981 239.749 1.71514C240.5 1.71514 241.039 1.78047 241.366 1.91114C241.693 2.20514 242.134 2.41747 242.689 2.54814L245.188 3.87114C245.547 4.23047 246.282 5.07981 247.393 6.41914C248.602 8.57514 249.369 10.7638 249.696 12.9851C249.729 13.6058 249.745 14.7001 249.745 16.2681C249.451 19.2408 248.912 21.3968 248.128 22.7361C248.063 23.1281 247.883 23.6181 247.589 24.2061C247.589 24.2715 247.36 24.6798 246.903 25.4311C246.478 26.1498 245.988 26.8685 245.433 27.5871C244.878 28.2731 244.518 28.7305 244.355 28.9591C243.016 30.2005 242.264 30.8865 242.101 31.0171C241.35 31.5725 240.925 31.8665 240.827 31.8991C238.344 33.1405 237.021 33.8101 236.858 33.9081C236.727 34.0061 236.335 34.1205 235.682 34.2511C234.735 34.3491 234.147 34.3001 233.918 34.1041C233.395 33.8755 232.922 33.5325 232.497 33.0751C232.366 33.0425 232.105 32.7811 231.713 32.2911C231.19 31.8991 230.896 31.6705 230.831 31.6051C230.406 30.9845 230.096 29.8085 229.9 28.0771C229.867 27.9465 229.867 27.5055 229.9 26.7541ZM256.075 2.64614C258.263 2.64614 259.799 3.08714 260.681 3.96914C260.681 4.52447 260.305 5.65147 259.554 7.35014C259.423 7.90547 259.211 8.34647 258.917 8.67314L258.28 9.31014C258.116 9.40814 257.953 9.45714 257.79 9.45714C256.614 9.75114 255.699 9.52247 255.046 8.77114C254.915 8.57514 254.752 8.42814 254.556 8.33014C254.392 8.23214 254.262 7.93814 254.164 7.44814C253.87 7.02347 253.723 6.69681 253.723 6.46814C253.657 4.44281 254.392 3.16881 255.928 2.64614H256.075ZM255.683 14.2101C256.009 14.0468 256.777 14.2101 257.986 14.7001C258.116 14.8308 258.312 14.9615 258.574 15.0921L259.358 15.7291C259.488 15.8598 259.554 16.0721 259.554 16.3661V20.6781C259.554 21.3315 259.521 21.9195 259.456 22.4421V22.7361C259.358 24.0755 259.439 27.0971 259.701 31.8011C259.799 32.7158 259.586 33.2711 259.064 33.4671C258.508 33.4671 258.149 33.3855 257.986 33.2221C257.855 33.1568 257.741 33.1241 257.643 33.1241H257.3L257.006 33.2221C256.908 33.2221 256.728 33.1568 256.467 33.0261C256.205 32.8628 256.026 32.6995 255.928 32.5361C255.862 32.3728 255.732 32.2748 255.536 32.2421C255.176 32.1115 254.98 31.8665 254.948 31.5071C254.49 30.6251 254.245 30.1025 254.213 29.9391C254.213 29.7758 254.164 29.5961 254.066 29.4001L253.821 25.1371C253.821 24.6471 253.853 24.2715 253.919 24.0101V22.8341C253.951 22.4748 253.984 21.8215 254.017 20.8741C254.049 19.8941 254.098 19.1101 254.164 18.5221C254.098 17.6728 254.066 17.1011 254.066 16.8071C254.066 16.5131 254.082 16.3008 254.115 16.1701C253.755 15.8108 253.772 15.3208 254.164 14.7001C254.588 14.3735 254.997 14.2101 255.389 14.2101H255.683ZM266.098 14.3571C266.98 13.2791 268.189 12.7075 269.724 12.6421C272.24 12.5441 274.102 13.1648 275.31 14.5041C276.552 15.8435 277.205 17.1665 277.27 18.4731C277.368 19.7798 277.042 20.4821 276.29 20.5801C275.212 20.6128 274.51 20.4658 274.183 20.1391C273.889 20.1718 273.514 19.9595 273.056 19.5021C272.86 19.4041 272.599 19.0285 272.272 18.3751L271.733 17.1501C271.472 16.5621 271.145 16.2355 270.753 16.1701C270.263 16.3661 270.018 16.8561 270.018 17.6401C270.149 19.1755 270.884 20.6455 272.223 22.0501C272.223 22.0501 272.24 22.0991 272.272 22.1971C272.338 22.2625 272.583 22.5238 273.007 22.9811C275.588 25.8231 276.927 28.1098 277.025 29.8411C277.025 30.9518 276.797 31.6868 276.339 32.0461C274.935 33.7121 273.105 34.5778 270.851 34.6431C268.597 34.7085 266.735 34.0061 265.265 32.5361C264.873 32.1441 264.677 31.7685 264.677 31.4091C264.481 30.7885 264.416 30.3801 264.481 30.1841C264.383 29.2695 264.383 28.5835 264.481 28.1261C264.677 27.0808 265.445 26.5418 266.784 26.5091C267.274 26.5091 267.585 26.8031 267.715 27.3911C268.14 29.0571 268.532 30.1515 268.891 30.6741C269.283 31.1968 269.904 31.4418 270.753 31.4091C271.831 31.3438 272.338 30.7395 272.272 29.5961C272.24 28.4528 271.701 27.3911 270.655 26.4111C270.329 26.0191 270.002 25.7251 269.675 25.5291C269.381 25.3005 269.185 25.1371 269.087 25.0391C269.055 24.9411 268.973 24.8431 268.842 24.7451C268.189 24.2225 267.356 23.3568 266.343 22.1481C265.363 20.9395 264.841 19.8125 264.775 18.7671C264.645 16.9051 265.086 15.4351 266.098 14.3571ZM292.649 18.6691L292.551 17.5421C292.551 17.0195 292.404 16.5785 292.11 16.2191C291.979 16.1538 291.848 15.9905 291.718 15.7291H291.669C291.669 15.6965 291.587 15.6638 291.424 15.6311C291.26 15.5658 291.13 15.5658 291.032 15.6311C290.868 15.6965 290.378 16.1375 289.562 16.9541L288.925 18.3751C288.565 18.8651 288.108 19.8288 287.553 21.2661C287.52 21.2988 287.52 21.4785 287.553 21.8051C287.618 22.2298 287.716 23.2915 287.847 24.9901C288.108 27.4075 288.255 28.8285 288.288 29.2531L288.827 29.1551C288.925 29.0571 289.153 28.9591 289.513 28.8611C289.97 28.3385 290.313 27.9628 290.542 27.7341L291.522 26.1661C291.522 26.0028 291.62 25.6925 291.816 25.2351C292.044 24.7451 292.208 24.3041 292.306 23.9121C292.306 23.8468 292.338 23.5855 292.404 23.1281C292.502 22.4421 292.551 21.7725 292.551 21.1191C292.649 21.1191 292.681 21.0375 292.649 20.8741C292.649 20.7108 292.649 20.5148 292.649 20.2861V18.6691ZM281.477 14.7981C281.281 13.7528 281.183 13.0341 281.183 12.6421V12.2501C281.183 11.8255 281.46 11.4335 282.016 11.0741L282.653 10.7801C282.685 10.7475 283.143 10.6821 284.025 10.5841C284.482 10.5841 284.76 10.6005 284.858 10.6331C284.956 10.6331 285.168 10.7148 285.495 10.8781C285.854 11.0415 286.099 11.1885 286.23 11.3191C286.491 11.8418 286.622 12.3481 286.622 12.8381V14.1611L286.965 13.8671L287.455 13.3281C287.52 13.1975 287.732 13.0178 288.092 12.7891C288.451 12.5605 288.99 12.3971 289.709 12.2991C290.689 12.1358 291.767 12.2011 292.943 12.4951C293.498 12.5605 293.841 12.6748 293.972 12.8381C293.972 12.7728 294.249 12.8218 294.805 12.9851C294.772 13.0505 294.837 13.1158 295.001 13.1811C295.197 13.2465 295.458 13.3445 295.785 13.4751L296.128 13.8671L296.324 14.4551C296.52 14.5205 296.699 14.7655 296.863 15.1901L297.353 17.0031C297.353 17.1991 297.434 17.5095 297.598 17.9341V19.1101C297.63 19.4695 297.647 19.8615 297.647 20.2861C297.647 20.6781 297.614 21.1681 297.549 21.7561V22.3441L297.5 22.6871V22.7851C297.434 22.9158 297.434 23.0628 297.5 23.2261C297.369 24.2388 297.157 25.0391 296.863 25.6271L295.932 27.9301C295.768 28.0935 295.621 28.3221 295.491 28.6161C295.393 28.9101 294.952 29.4165 294.168 30.1351C292.567 31.6378 290.787 32.3891 288.827 32.3891C288.761 32.4218 288.647 32.5198 288.484 32.6831C288.484 32.8138 288.533 32.9118 288.631 32.9771L288.827 36.3091C288.827 37.1258 288.859 37.5505 288.925 37.5831C288.957 37.7465 289.006 38.2855 289.072 39.2001C289.137 40.1148 289.235 40.6865 289.366 40.9151L289.464 42.2871V42.7281C289.398 43.2508 289.268 43.6591 289.072 43.9531C288.876 44.2471 288.565 44.4431 288.141 44.5411C287.749 44.6391 287.242 44.6391 286.622 44.5411C286.034 44.4758 285.674 44.3451 285.544 44.1491C285.086 43.5285 284.776 42.9405 284.613 42.3851C284.319 41.1765 284.172 40.0331 284.172 38.9551C284.074 38.3671 284.025 37.8118 284.025 37.2891C283.959 36.7011 283.861 36.2438 283.731 35.9171C283.6 35.5905 283.535 35.3455 283.535 35.1821C283.306 33.7775 283.192 33.0098 283.192 32.8791C283.192 32.5198 283.11 32.1441 282.947 31.7521C282.783 30.2821 282.702 29.3838 282.702 29.0571L282.261 23.7651V22.7851C282.163 22.6545 282.065 21.7398 281.967 20.0411C281.738 19.6165 281.575 17.8688 281.477 14.7981ZM312.676 21.5111L312.431 20.2371C312.431 20.1391 312.398 20.0248 312.333 19.8941C312.3 19.7635 312.251 19.5185 312.186 19.1591C311.924 18.9631 311.745 18.8161 311.647 18.7181L311.402 18.3261L311.255 17.8851C311.091 17.7871 310.993 17.6565 310.961 17.4931C310.961 17.2971 310.895 17.1501 310.765 17.0521C310.667 16.9215 310.585 16.8071 310.52 16.7091C310.454 16.5785 310.389 16.4968 310.324 16.4641C310.03 16.2681 309.638 16.2518 309.148 16.4151C308.658 16.5785 308.364 16.8071 308.266 17.1011C307.71 18.3425 307.433 19.1428 307.433 19.5021C306.975 21.0701 306.845 22.1808 307.041 22.8341C306.975 23.8795 307.106 25.3168 307.433 27.1461V27.6851C307.727 28.0771 308.004 28.5998 308.266 29.2531C308.592 29.6778 308.805 29.9881 308.903 30.1841C309.033 30.3475 309.115 30.4455 309.148 30.4781C309.474 30.7068 309.67 30.8701 309.736 30.9681C309.997 30.8375 310.177 30.7395 310.275 30.6741V30.3311C310.438 30.2005 310.585 30.1025 310.716 30.0371C310.683 30.0371 310.797 29.9228 311.059 29.6941L311.304 29.4491C311.794 28.4038 312.039 27.8648 312.039 27.8321C312.039 27.7668 312.022 27.6525 311.99 27.4891C311.859 27.1951 311.941 26.9665 312.235 26.8031C312.235 26.8031 312.431 26.2315 312.823 25.0881V24.7941C312.888 24.5981 312.855 24.4511 312.725 24.3531V24.0101C312.79 23.8795 312.823 23.7488 312.823 23.6181C312.953 23.0955 313.002 22.7851 312.97 22.6871C312.97 22.5891 312.986 22.4748 313.019 22.3441C313.051 22.1808 313.1 22.0665 313.166 22.0011C313.264 21.8705 313.1 21.7071 312.676 21.5111ZM305.718 12.2501C306.012 12.2501 306.224 12.2175 306.355 12.1521C306.518 12.0541 306.796 11.9398 307.188 11.8091C307.612 11.6785 308.592 11.6785 310.128 11.8091C310.977 11.9725 311.924 12.3971 312.97 13.0831C314.048 13.6058 314.913 14.3245 315.567 15.2391C316.481 17.6565 316.988 19.7635 317.086 21.5601C317.151 24.3041 316.89 26.5745 316.302 28.3711C315.485 30.4291 314.946 31.6378 314.685 31.9971C314.619 32.4218 314.358 32.9771 313.901 33.6631C313.737 33.6631 313.607 33.6795 313.509 33.7121C313.509 33.7448 313.411 33.8428 313.215 34.0061C313.051 34.2021 312.806 34.3001 312.48 34.3001C312.055 34.3981 311.794 34.4798 311.696 34.5451C311.63 34.6431 311.467 34.6921 311.206 34.6921L309.981 34.7901H308.658C307.776 34.7901 307.073 34.6758 306.551 34.4471L305.081 33.4671L304.591 32.8791C304.493 32.8791 304.427 32.8465 304.395 32.7811C304.395 32.6831 304.378 32.6015 304.346 32.5361C304.052 32.3075 303.905 32.0461 303.905 31.7521C303.545 31.1968 303.366 30.8048 303.366 30.5761C303.366 30.3475 303.317 30.1841 303.219 30.0861C303.219 29.5961 303.072 28.8775 302.778 27.9301L302.68 27.2441V26.7051C302.647 26.2151 302.516 25.6435 302.288 24.9901C302.353 24.9248 302.353 24.7451 302.288 24.4511C302.288 23.6998 302.304 23.1935 302.337 22.9321L302.19 22.2951C302.288 22.0991 302.32 21.9195 302.288 21.7561C302.288 21.5928 302.337 21.3478 302.435 21.0211V20.6781L302.631 18.9631C302.631 18.7345 302.663 18.5548 302.729 18.4241V18.0811C302.794 18.0811 302.843 17.9178 302.876 17.5911L303.121 17.1991L303.17 16.8071C303.17 16.7091 303.153 16.6111 303.121 16.5131L303.366 15.7781C303.366 15.7128 303.48 15.5168 303.709 15.1901C303.709 15.0268 303.823 14.7818 304.052 14.4551C304.052 14.2918 304.133 14.0958 304.297 13.8671C304.297 13.5731 304.476 13.1975 304.836 12.7401C305.162 12.4135 305.456 12.2501 305.718 12.2501ZM326.621 27.5871C326.915 26.9011 327.225 26.1008 327.552 25.1861L328.63 22.4421L329.071 21.6091C322.44 29.4491 322.505 29.3675 329.267 21.3641L330.541 18.7181C330.639 18.6201 330.721 18.4078 330.786 18.0811L332.06 16.1701L333.04 15.2881C333.236 15.1901 333.448 15.0268 333.677 14.7981C333.742 14.8635 334.004 14.7981 334.461 14.6021C334.755 14.6021 335.343 14.6511 336.225 14.7491L337.205 15.0921L339.41 16.4151C339.867 16.8725 340.063 17.3625 339.998 17.8851C339.965 18.2771 339.786 19.3551 339.459 21.1191C339.198 22.5238 338.822 24.1408 338.332 25.9701C338.071 27.4401 337.989 28.5018 338.087 29.1551C338.185 29.8085 338.234 30.1841 338.234 30.2821C338.299 30.4781 338.381 30.7558 338.479 31.1151C338.61 31.4745 338.642 31.6705 338.577 31.7031C338.806 31.7358 338.92 31.8991 338.92 32.1931C339.181 32.8791 339.263 33.3365 339.165 33.5651C339.1 33.8265 338.887 34.1041 338.528 34.3981C338.201 34.6921 337.597 34.8391 336.715 34.8391C336.192 34.7738 335.768 34.7411 335.441 34.7411C335.147 34.7411 334.771 34.6268 334.314 34.3981C333.367 33.7121 332.828 33.0098 332.697 32.2911C332.534 31.8338 332.436 31.4908 332.403 31.2621C332.37 31.0335 332.354 30.8701 332.354 30.7721C332.191 29.7921 332.207 28.7795 332.403 27.7341C332.436 27.3421 332.583 26.5418 332.844 25.3331C333.105 24.0918 333.367 23.1118 333.628 22.3931C333.628 21.6745 333.612 21.2988 333.579 21.2661L331.668 24.9901C331.472 25.5128 331.292 25.9048 331.129 26.1661C330.966 26.3295 330.884 26.5255 330.884 26.7541C330.623 27.0155 330.378 27.5381 330.149 28.3221C330.149 28.5508 330.133 28.7141 330.1 28.8121C330.067 28.9101 329.937 29.1551 329.708 29.5471C329.512 29.9065 329.365 30.2495 329.267 30.5761C329.202 30.9028 329.006 31.2621 328.679 31.6541C328.679 31.7848 328.467 32.4545 328.042 33.6631C328.009 33.7938 327.666 33.9081 327.013 34.0061L326.082 33.9081C325.853 33.8428 325.314 33.6795 324.465 33.4181C323.616 33.1568 323.142 33.0261 323.044 33.0261C322.979 33.0261 322.913 32.9935 322.848 32.9281C322.293 32.7975 321.95 32.3401 321.819 31.5561V30.7721C321.982 30.5761 321.999 30.2005 321.868 29.6451C321.933 29.3185 321.982 28.9428 322.015 28.5181C321.917 28.4528 321.901 28.3385 321.966 28.1751C322.031 27.1298 322.064 26.3948 322.064 25.9701V24.7941C322.129 23.7161 322.211 22.5565 322.309 21.3151C322.407 20.0738 322.456 19.2735 322.456 18.9141V17.9341C322.391 17.7708 322.374 17.3951 322.407 16.8071C322.342 16.1865 322.26 15.8108 322.162 15.6801C322.064 15.5168 322.031 15.2881 322.064 14.9941L322.407 14.1611C322.93 13.7365 323.812 13.6548 325.053 13.9161C325.608 14.0141 326.376 14.3408 327.356 14.8961C327.421 14.9941 327.585 15.2065 327.846 15.5331C328.042 15.5331 328.156 15.8108 328.189 16.3661C328.156 16.6601 328.14 16.9051 328.14 17.1011C328.107 17.1338 327.928 17.8851 327.601 19.3551C326.882 23.8958 326.523 26.3621 326.523 26.7541C326.523 27.1461 326.556 27.4238 326.621 27.5871ZM350.622 5.63514H350.769C351.913 5.70047 352.648 6.04347 352.974 6.66414C353.334 7.25214 353.464 7.82381 353.366 8.37914C353.301 8.93447 352.86 9.62047 352.043 10.4371C351.259 11.2538 350.541 11.6458 349.887 11.6131C349.691 11.6131 349.299 11.5151 348.711 11.3191C348.156 11.1231 347.862 11.0088 347.829 10.9761C347.797 10.8455 347.699 10.7475 347.535 10.6821C346.686 10.3555 346.212 9.52247 346.114 8.18314C346.114 8.05247 346.212 7.95447 346.408 7.88914C346.278 7.88914 346.261 7.69314 346.359 7.30114C346.588 6.58247 347.094 6.10881 347.878 5.88014C348.891 5.68414 349.806 5.60247 350.622 5.63514ZM350.524 18.0321L349.691 26.2151C349.691 26.4111 349.691 26.6071 349.691 26.8031C349.691 26.9665 349.708 27.1135 349.74 27.2441C349.708 27.3748 349.691 27.5381 349.691 27.7341V31.2621C349.822 32.3728 349.822 33.0261 349.691 33.2221C349.495 33.2875 349.267 33.3855 349.005 33.5161C348.744 33.6795 348.238 33.7121 347.486 33.6141C346.768 33.5488 346.245 33.4345 345.918 33.2711L345.33 33.1241C345.004 33.1241 344.791 32.9771 344.693 32.6831C344.269 32.4218 344.04 32.0788 344.007 31.6541C343.909 31.4908 344.024 31.2621 344.35 30.9681C344.318 30.8048 344.252 30.5761 344.154 30.2821C344.056 29.9555 344.024 29.6615 344.056 29.4001C344.154 29.2368 344.105 28.9918 343.909 28.6651C343.909 28.3058 343.958 27.8975 344.056 27.4401C344.187 27.3095 344.22 26.8358 344.154 26.0191C344.383 25.6925 344.497 25.2351 344.497 24.6471C344.367 24.1245 344.416 23.6018 344.644 23.0791C344.873 22.5565 345.004 22.0338 345.036 21.5111C345.102 20.6945 345.249 19.8941 345.477 19.1101C345.477 18.7835 345.624 18.2608 345.918 17.5421C346.245 16.8235 346.457 16.3988 346.555 16.2681L347.339 15.4841L348.221 15.1411H348.27C348.662 15.0105 349.054 15.0268 349.446 15.1901C350.394 15.5495 350.965 15.8271 351.161 16.0231C351.031 16.1538 350.949 16.3498 350.916 16.6111C350.884 16.8725 350.851 17.1011 350.818 17.2971C350.688 17.4605 350.59 17.7055 350.524 18.0321ZM366.617 17.9831L366.47 17.9341C366.535 17.9668 366.584 17.9831 366.617 17.9831ZM360.443 30.5271V30.9681C361.194 31.9808 361.586 32.4871 361.619 32.4871C361.782 32.4871 362.158 32.3891 362.746 32.1931C362.779 32.1931 362.942 32.0461 363.236 31.7521C363.563 31.4255 363.791 31.2131 363.922 31.1151C364.314 30.8865 364.575 30.7395 364.706 30.6741C364.706 30.4128 364.82 30.1515 365.049 29.8901C365.278 29.5961 365.474 29.3185 365.637 29.0571C365.833 28.7631 365.964 28.5508 366.029 28.4201C366.225 28.1588 366.29 28.0281 366.225 28.0281C366.29 27.8975 366.388 27.6198 366.519 27.1951L367.009 26.0681L367.548 23.6181C367.613 23.3895 367.532 22.6708 367.303 21.4621V21.0211C367.238 20.9231 367.205 20.8251 367.205 20.7271V20.6781L367.156 20.1881C367.156 20.0248 367.107 19.7471 367.009 19.3551C366.944 19.0611 366.748 18.5875 366.421 17.9341H365.882C365.294 18.2281 364.853 18.5385 364.559 18.8651C364.2 19.3225 363.742 20.1391 363.187 21.3151C362.632 22.4911 362.256 23.5528 362.06 24.5001L361.766 25.6761C361.341 26.5581 361.064 27.5708 360.933 28.7141L360.688 29.4001L360.443 30.5271ZM371.615 16.4641C372.268 17.8688 372.595 19.0448 372.595 19.9921C372.595 21.8868 372.432 23.3241 372.105 24.3041C372.105 24.6635 372.072 24.9411 372.007 25.1371C371.713 27.2931 371.337 28.8938 370.88 29.9391C370.717 30.1678 370.537 30.5271 370.341 31.0171C370.145 31.5725 369.655 32.2095 368.871 32.9281C368.871 33.0261 368.626 33.3201 368.136 33.8101C367.646 34.3328 366.878 34.7575 365.833 35.0841C364.624 35.4761 363.84 35.6721 363.481 35.6721C361.619 35.9661 360.263 35.6885 359.414 34.8391L359.365 34.8881C358.712 36.0315 357.928 36.3745 357.013 35.9171C356.458 35.6231 356.131 35.4271 356.033 35.3291C355.968 35.2311 355.919 35.0188 355.886 34.6921C355.657 34.1041 355.576 33.4181 355.641 32.6341L355.886 31.0171C355.788 30.4618 355.772 29.9718 355.837 29.5471V29.2041C355.902 28.5508 355.951 27.3095 355.984 25.4801C356.017 23.6181 356.066 22.4911 356.131 22.0991C356.229 21.6745 356.278 21.2825 356.278 20.9231C356.67 16.4478 356.882 14.0631 356.915 13.7691C356.98 13.4425 357.013 12.3808 357.013 10.5841V7.88914C357.013 7.36647 356.997 6.97447 356.964 6.71314C356.964 6.45181 357.029 6.27214 357.16 6.17414C356.899 5.42281 356.85 4.57347 357.013 3.62614V3.03814C356.948 2.41747 357.078 1.82947 357.405 1.27414C357.634 0.980139 358.091 0.702472 358.777 0.441138C359.463 0.179806 360.035 0.0328062 360.492 0.000137985H360.737C361.162 0.000137985 361.537 0.114472 361.864 0.343139C362.256 0.506473 362.452 0.898472 362.452 1.51914C362.517 1.71514 362.517 1.92747 362.452 2.15614C362.485 2.38481 362.321 4.70414 361.962 9.11414C361.635 13.4915 361.472 15.8925 361.472 16.3171C361.472 16.7091 361.456 16.9705 361.423 17.1011C361.423 17.1991 361.423 17.2645 361.423 17.2971C361.586 17.2318 361.684 17.1175 361.717 16.9541C361.75 16.7908 361.815 16.6765 361.913 16.6111C362.468 16.2191 362.746 15.9415 362.746 15.7781C362.746 15.7455 362.828 15.6638 362.991 15.5331C363.154 15.4025 363.252 15.3371 363.285 15.3371C363.35 15.2391 363.465 15.1738 363.628 15.1411L364.51 14.7001C364.543 14.5041 365.016 14.4225 365.931 14.4551C366.846 14.4551 367.401 14.5205 367.597 14.6511C367.924 14.8145 368.136 14.9288 368.234 14.9941C368.365 15.0268 368.479 15.0595 368.577 15.0921C368.708 15.0921 369.165 15.2228 369.949 15.4841C370.308 15.4841 370.488 15.5331 370.488 15.6311C370.619 15.6965 370.717 15.7291 370.782 15.7291C371.337 16.0558 371.615 16.3008 371.615 16.4641ZM377.869 7.79114C377.967 7.49714 378 7.21947 377.967 6.95814C377.935 6.69681 377.951 6.04347 378.016 4.99814C378.18 4.70414 378.196 4.13247 378.065 3.28314C378.065 2.79314 378.261 2.28681 378.653 1.76414C379.045 1.2088 379.47 0.800472 379.927 0.53914V0.588139C380.058 0.457472 380.352 0.359473 380.809 0.29414C381.92 0.130807 382.72 0.473806 383.21 1.32314C383.08 1.55181 383.014 2.28681 383.014 3.52814V8.52614C383.047 9.34281 383.063 10.4535 383.063 11.8581V13.7201L383.259 16.9051C383.259 17.7545 383.308 18.6038 383.406 19.4531C383.406 21.0211 383.439 21.9685 383.504 22.2951C383.57 22.6218 383.602 22.8505 383.602 22.9811V23.7651C383.602 24.4838 383.635 25.0065 383.7 25.3331C383.7 25.6598 383.782 26.0028 383.945 26.3621C383.782 26.8521 383.782 27.4075 383.945 28.0281C384.109 28.4201 384.158 28.9265 384.092 29.5471C384.288 29.9391 384.354 30.4618 384.288 31.1151L384.435 31.4091L384.533 31.8501C384.664 32.2748 384.599 32.7811 384.337 33.3691C384.109 33.9245 383.619 34.3001 382.867 34.4961C382.149 34.7248 381.332 34.3818 380.417 33.4671C380.385 33.3691 380.205 33.2221 379.878 33.0261C379.486 32.7975 379.16 32.0298 378.898 30.7231C378.735 30.3965 378.653 30.0535 378.653 29.6941C378.294 29.4001 378.114 28.9591 378.114 28.3711V27.2931C378.082 26.8031 378.016 26.4765 377.918 26.3131C377.82 26.1825 377.739 25.8395 377.673 25.2841L377.771 22.0011C377.771 20.9231 377.739 20.0901 377.673 19.5021V16.1701C377.575 15.0921 377.526 14.2755 377.526 13.7201C377.526 13.1321 377.641 11.9725 377.869 10.2411C377.869 10.1105 377.82 9.93081 377.722 9.70214C377.82 9.21214 377.869 8.57514 377.869 7.79114ZM398.554 17.6891C398.685 17.1991 398.669 16.5785 398.505 15.8271C398.277 15.6311 397.966 15.5331 397.574 15.5331C397.084 15.5331 396.643 15.9905 396.251 16.9051C395.729 17.6891 395.337 18.5548 395.075 19.5021H395.026C394.667 20.8741 394.487 21.6091 394.487 21.7071C395.01 21.8378 395.435 21.9031 395.761 21.9031C396.088 21.8705 396.464 21.6908 396.888 21.3641C397.64 20.6455 398.195 19.4205 398.554 17.6891ZM398.407 24.7451L396.594 24.8921C395.582 24.8921 394.781 24.7941 394.193 24.5981L394.34 25.5291C394.438 28.2405 395.19 30.0208 396.594 30.8701C396.986 31.0335 397.313 31.1151 397.574 31.1151C397.836 31.1151 398.179 30.9845 398.603 30.7231C398.734 30.5925 398.848 30.4128 398.946 30.1841C398.979 29.8901 399.142 29.7595 399.436 29.7921C400.776 28.0935 401.788 27.4238 402.474 27.7831C403.16 28.2405 403.503 28.5998 403.503 28.8611C403.503 28.9918 403.422 29.1388 403.258 29.3021V29.5961C403.258 29.9228 403.046 30.5108 402.621 31.3601C402.229 32.2095 401.805 32.9281 401.347 33.5161C401.119 34.0061 400.825 34.3491 400.465 34.5451C399.42 35.1985 398.309 35.4598 397.133 35.3291C396.872 35.2965 396.692 35.2311 396.594 35.1331C396.333 35.0678 396.137 35.0515 396.006 35.0841L395.614 35.0351C395.32 35.0351 395.075 34.9698 394.879 34.8391C394.553 34.6431 394.324 34.5451 394.193 34.5451C393.344 34.2185 392.821 33.9735 392.625 33.8101C392.462 33.6468 392.315 33.5325 392.184 33.4671C392.054 33.4018 391.743 33.0588 391.253 32.4381C390.829 32.0788 390.584 31.8501 390.518 31.7521C390.322 31.4581 390.143 31.2458 389.979 31.1151C389.849 30.9845 389.767 30.6905 389.734 30.2331C389.604 30.0698 389.538 29.8575 389.538 29.5961L389.342 29.2041C389.342 28.9755 389.244 28.7958 389.048 28.6651C388.852 28.4691 388.754 28.2241 388.754 27.9301V27.5381C388.624 27.4728 388.591 27.2768 388.656 26.9501V25.6761L388.607 25.2351V24.8921C388.575 24.7615 388.607 24.4838 388.705 24.0591L388.656 23.6181C388.689 23.5855 388.738 23.3241 388.803 22.8341C388.934 22.1481 389.081 21.7235 389.244 21.5601V21.1191C389.277 21.0211 389.293 20.8905 389.293 20.7271C389.293 20.5638 389.326 20.3841 389.391 20.1881C389.489 19.9921 389.751 19.2571 390.175 17.9831L390.959 16.2681C391.188 15.7781 391.547 15.2391 392.037 14.6511C392.07 14.4878 392.201 14.1938 392.429 13.7691L393.066 13.1811C393.262 12.8871 393.556 12.6748 393.948 12.5441C394.406 12.3155 394.749 12.2011 394.977 12.2011L396.349 12.0051C396.513 12.0378 396.627 12.0541 396.692 12.0541H397.329C398.048 12.1195 398.636 12.2665 399.093 12.4951C400.073 12.7891 400.792 13.1648 401.249 13.6221C402.262 14.7655 402.768 15.8598 402.768 16.9051C402.768 17.9505 402.605 18.8488 402.278 19.6001C401.462 21.4621 400.874 22.6381 400.514 23.1281C399.926 24.2061 399.224 24.7451 398.407 24.7451ZM229.9 42.6461C232.089 42.6461 233.624 43.0871 234.506 43.9691C234.506 44.5245 234.13 45.6515 233.379 47.3501C233.248 47.9055 233.036 48.3465 232.742 48.6731L232.105 49.3101C231.942 49.4081 231.778 49.4571 231.615 49.4571C230.439 49.7511 229.524 49.5225 228.871 48.7711C228.74 48.5751 228.577 48.4281 228.381 48.3301C228.218 48.2321 228.087 47.9381 227.989 47.4481C227.695 47.0235 227.548 46.6968 227.548 46.4681C227.483 44.4428 228.218 43.1688 229.753 42.6461H229.9ZM229.508 54.2101C229.835 54.0468 230.602 54.2101 231.811 54.7001C231.942 54.8308 232.138 54.9615 232.399 55.0921L233.183 55.7291C233.314 55.8598 233.379 56.0721 233.379 56.3661V60.6781C233.379 61.3315 233.346 61.9195 233.281 62.4421V62.7361C233.183 64.0755 233.265 67.0971 233.526 71.8011C233.624 72.7158 233.412 73.2711 232.889 73.4671C232.334 73.4671 231.974 73.3855 231.811 73.2221C231.68 73.1568 231.566 73.1241 231.468 73.1241H231.125L230.831 73.2221C230.733 73.2221 230.553 73.1568 230.292 73.0261C230.031 72.8628 229.851 72.6995 229.753 72.5361C229.688 72.3728 229.557 72.2748 229.361 72.2421C229.002 72.1115 228.806 71.8665 228.773 71.5071C228.316 70.6251 228.071 70.1025 228.038 69.9391C228.038 69.7758 227.989 69.5961 227.891 69.4001L227.646 65.1371C227.646 64.6471 227.679 64.2715 227.744 64.0101V62.8341C227.777 62.4748 227.809 61.8215 227.842 60.8741C227.875 59.8941 227.924 59.1101 227.989 58.5221C227.924 57.6728 227.891 57.1011 227.891 56.8071C227.891 56.5131 227.907 56.3008 227.94 56.1701C227.581 55.8108 227.597 55.3208 227.989 54.7001C228.414 54.3735 228.822 54.2101 229.214 54.2101H229.508ZM240.757 53.1321H240.855C241.279 53.0015 241.965 53.0505 242.913 53.2791C243.239 53.3771 243.435 54.3081 243.501 56.0721C243.631 57.4115 243.697 58.3425 243.697 58.8651C243.697 59.3551 243.713 59.6491 243.746 59.7471V63.0301L243.991 63.0791C243.991 63.0465 244.023 62.8505 244.089 62.4911C244.252 61.5765 244.432 60.8741 244.628 60.3841C244.758 60.2535 244.824 60.0901 244.824 59.8941C244.856 59.6981 244.954 59.4858 245.118 59.2571C245.314 58.3425 245.804 57.1501 246.588 55.6801C246.849 55.0595 247.094 54.6021 247.323 54.3081C247.584 53.9815 247.96 53.8671 248.45 53.9651C248.972 54.0631 249.397 54.2428 249.724 54.5041C249.985 54.5368 250.295 54.5858 250.655 54.6511L252.076 54.9451C252.206 54.9778 252.386 55.0921 252.615 55.2881C252.843 55.4515 252.941 55.6638 252.909 55.9251C252.876 56.1865 252.843 56.9541 252.811 58.2281V59.0121L252.615 60.9231C252.615 61.4458 252.647 61.7561 252.713 61.8541L252.909 62.0011L253.301 59.7471C253.301 59.5185 253.399 59.3061 253.595 59.1101L254.183 57.6891C254.183 57.5911 254.281 57.3788 254.477 57.0521C254.542 56.8235 254.689 56.4968 254.918 56.0721C255.179 55.6475 255.506 55.2391 255.898 54.8471C255.898 54.5858 256.192 54.4061 256.78 54.3081C257.237 53.8181 257.988 53.8018 259.034 54.2591C259.23 54.2591 259.409 54.2918 259.573 54.3571C259.573 54.4225 259.687 54.4715 259.916 54.5041C260.177 54.5368 260.487 54.7491 260.847 55.1411V55.6801C260.847 56.0068 260.863 56.2518 260.896 56.4151C260.863 56.6438 260.879 56.9378 260.945 57.2971V57.8851C260.977 58.1465 261.059 58.9631 261.19 60.3351V60.8741C261.288 61.0701 261.32 61.2825 261.288 61.5111C261.288 61.7071 261.288 61.9195 261.288 62.1481C261.386 62.2461 261.467 62.5238 261.533 62.9811C261.598 63.4058 261.565 63.8305 261.435 64.2551L261.533 64.6961V66.0681C261.696 66.1988 261.778 66.3948 261.778 66.6561L261.925 67.4891C261.925 68.0771 262.006 68.6651 262.17 69.2531V69.7921L262.415 71.0661V71.3601L262.366 71.8501C262.366 72.2095 262.17 72.4708 261.778 72.6341C261.712 72.6668 261.614 72.7158 261.484 72.7811C261.386 72.8465 261.206 72.8791 260.945 72.8791L259.916 72.5361L259.426 72.1931C259.164 72.2585 258.821 72.1441 258.397 71.8501C258.397 71.5561 258.282 71.2948 258.054 71.0661C257.662 70.9355 257.515 70.6741 257.613 70.2821C257.645 70.2495 257.564 70.0698 257.368 69.7431C257.433 69.6778 257.384 69.3185 257.221 68.6651C257.221 68.3711 257.188 68.0935 257.123 67.8321C257.09 67.5381 257.057 67.2441 257.025 66.9501C257.025 66.6561 256.976 66.3948 256.878 66.1661C256.91 66.1661 256.927 66.0518 256.927 65.8231C256.927 65.5945 256.894 65.3821 256.829 65.1861V64.0591L256.584 62.0991L255.849 64.3531C255.359 65.6271 255.114 66.3131 255.114 66.4111L253.546 71.3111C253.448 71.5071 253.252 71.7358 252.958 71.9971C252.696 72.2258 252.468 72.3401 252.272 72.3401C252.206 72.2421 252.027 72.1931 251.733 72.1931C251.471 72.1931 251.145 72.2748 250.753 72.4381C249.642 72.5688 249.005 72.2258 248.842 71.4091L248.744 70.2821L248.793 69.1551C248.727 69.0571 248.695 68.8285 248.695 68.4691L248.646 67.7831V65.6761L248.548 63.1771V60.7761C247.6 63.3568 247.012 65.0391 246.784 65.8231L244.971 71.6541C244.611 72.6015 243.958 73.1078 243.011 73.1731L242.472 73.2711C241.753 73.4345 241.279 73.3201 241.051 72.9281L240.561 72.0951C240.43 71.3765 240.299 70.9681 240.169 70.8701C240.103 70.4128 239.94 69.9391 239.679 69.4491L239.434 68.2731C239.434 68.1751 239.401 68.0281 239.336 67.8321V66.9501C239.238 66.6888 239.156 66.1661 239.091 65.3821C239.025 64.5655 239.009 63.9121 239.042 63.4221C238.911 63.0301 238.878 62.5401 238.944 61.9521V61.0701C238.78 60.3188 238.699 59.1755 238.699 57.6401V56.9541C238.862 55.9741 238.944 55.3208 238.944 54.9941C238.944 54.6348 239.025 54.3735 239.189 54.2101C239.352 54.0141 239.875 53.6548 240.757 53.1321ZM288.477 70.3801C288.477 70.1188 288.347 69.8738 288.085 69.6451C287.824 69.3838 287.693 69.1061 287.693 68.8121C287.693 68.4855 287.628 67.9628 287.497 67.2441C287.563 67.1135 287.546 66.6398 287.448 65.8231C287.481 65.7578 287.465 65.2841 287.399 64.4021C287.367 63.5201 287.35 62.7361 287.35 62.0501L286.86 62.9321C285.815 65.4801 285.292 66.8195 285.292 66.9501L284.165 70.3801L283.871 71.5561C283.61 72.4055 283.561 73.2711 283.724 74.1531C283.79 74.4471 283.447 74.7575 282.695 75.0841C282.499 75.0841 282.009 74.9861 281.225 74.7901C280.964 74.7901 280.703 74.7901 280.441 74.7901C280.213 74.8228 279.543 74.6595 278.432 74.3001C278.432 74.1695 278.171 73.8918 277.648 73.4671L277.501 70.0861C277.501 69.3675 277.599 68.2568 277.795 66.7541V65.5291L277.991 63.9121L278.236 60.8741V59.8941C277.354 62.4095 276.766 64.0428 276.472 64.7941C276.472 65.1861 276.113 66.5091 275.394 68.7631C274.708 71.5725 274.431 73.3855 274.561 74.2021C274.561 74.3981 274.496 74.5451 274.365 74.6431C274.267 74.7738 273.99 74.9535 273.532 75.1821C272.814 75.1821 271.719 75.0351 270.249 74.7411L269.367 74.3491C269.073 74.2511 268.812 73.8591 268.583 73.1731C268.355 72.4871 268.224 71.8991 268.191 71.4091C268.061 71.2458 267.995 70.8701 267.995 70.2821L267.946 69.6941C267.718 66.1988 267.603 63.7978 267.603 62.4911C267.669 62.2951 267.701 61.9685 267.701 61.5111V60.1391C267.701 59.5511 267.734 58.7835 267.799 57.8361C267.897 56.8888 267.946 56.2028 267.946 55.7781L267.897 54.1611C268.028 53.6385 268.714 53.3118 269.955 53.1811C270.511 53.1811 270.984 53.2791 271.376 53.4751C272.03 53.8998 272.438 54.4061 272.601 54.9941C272.797 55.5821 272.912 56.3335 272.944 57.2481C272.977 58.1628 272.977 58.9305 272.944 59.5511C272.912 61.3151 272.993 62.5565 273.189 63.2751C273.385 62.8831 273.647 62.1971 273.973 61.2171C274.039 61.1518 274.382 60.2861 275.002 58.6201L276.031 55.5331C276.783 54.5205 277.191 53.9978 277.256 53.9651C277.354 53.8998 277.616 53.8508 278.04 53.8181C278.53 53.7855 279.086 53.9161 279.706 54.2101C280.36 54.4715 280.703 54.6185 280.735 54.6511C280.801 54.6511 281.095 54.8145 281.617 55.1411C281.846 55.3371 282.058 55.7128 282.254 56.2681C282.45 56.8235 282.548 57.2808 282.548 57.6401C282.614 58.9468 282.646 59.6328 282.646 59.6981V60.2861C282.581 62.2461 282.63 63.3241 282.793 63.5201C283.022 62.6708 283.463 61.5765 284.116 60.2371L284.606 58.9631L285.586 56.9541C285.554 56.8561 285.733 56.3988 286.125 55.5821L286.615 54.0631C286.909 53.0505 287.726 52.2501 289.065 51.6621C289.327 51.6621 289.947 51.8418 290.927 52.2011C291.581 52.2011 292.169 52.6421 292.691 53.5241C292.92 53.8835 293.034 54.3571 293.034 54.9451C293.034 55.0758 292.985 55.8761 292.887 57.3461V58.9141C292.822 59.3061 292.806 59.6491 292.838 59.9431L292.789 61.4621V64.3531C292.789 64.7451 292.773 65.0065 292.74 65.1371L292.887 67.8811C293.018 68.1098 293.083 68.4365 293.083 68.8611C293.279 70.4945 293.671 71.7358 294.259 72.5851L294.602 73.2221C293.851 74.5288 292.675 74.9208 291.074 74.3981C290.944 74.1695 290.764 73.9735 290.535 73.8101C290.339 73.6468 290.062 73.3855 289.702 73.0261C289.702 72.9935 289.474 72.6505 289.016 71.9971C289.016 71.6051 288.837 71.0661 288.477 70.3801ZM308.832 57.6891C308.963 57.1991 308.947 56.5785 308.783 55.8271C308.555 55.6311 308.244 55.5331 307.852 55.5331C307.362 55.5331 306.921 55.9905 306.529 56.9051C306.007 57.6891 305.615 58.5548 305.353 59.5021H305.304C304.945 60.8741 304.765 61.6091 304.765 61.7071C305.288 61.8378 305.713 61.9031 306.039 61.9031C306.366 61.8705 306.742 61.6908 307.166 61.3641C307.918 60.6455 308.473 59.4205 308.832 57.6891ZM312.752 40.9801L313.536 41.0291C314.288 41.3885 315.006 42.0255 315.692 42.9401C315.954 43.2668 315.741 43.5445 315.055 43.7731C315.023 43.8711 314.843 44.0345 314.516 44.2631C313.798 44.8185 313.112 45.4391 312.458 46.1251C311.805 46.8111 311.299 47.3175 310.939 47.6441C310.286 48.9835 309.322 49.7511 308.048 49.9471C307.624 49.9471 307.199 49.7511 306.774 49.3591C306.382 48.9345 306.284 48.3138 306.48 47.4971C306.644 46.9745 307.199 46.1415 308.146 44.9981C308.146 44.9001 308.408 44.4755 308.93 43.7241C309.943 42.4175 311.217 41.5028 312.752 40.9801ZM308.685 64.7451L306.872 64.8921C305.86 64.8921 305.059 64.7941 304.471 64.5981L304.618 65.5291C304.716 68.2405 305.468 70.0208 306.872 70.8701C307.264 71.0335 307.591 71.1151 307.852 71.1151C308.114 71.1151 308.457 70.9845 308.881 70.7231C309.012 70.5925 309.126 70.4128 309.224 70.1841C309.257 69.8901 309.42 69.7595 309.714 69.7921C311.054 68.0935 312.066 67.4238 312.752 67.7831C313.438 68.2405 313.781 68.5998 313.781 68.8611C313.781 68.9918 313.7 69.1388 313.536 69.3021V69.5961C313.536 69.9228 313.324 70.5108 312.899 71.3601C312.507 72.2095 312.083 72.9281 311.625 73.5161C311.397 74.0061 311.103 74.3491 310.743 74.5451C309.698 75.1985 308.587 75.4598 307.411 75.3291C307.15 75.2965 306.97 75.2311 306.872 75.1331C306.611 75.0678 306.415 75.0515 306.284 75.0841L305.892 75.0351C305.598 75.0351 305.353 74.9698 305.157 74.8391C304.831 74.6431 304.602 74.5451 304.471 74.5451C303.622 74.2185 303.099 73.9735 302.903 73.8101C302.74 73.6468 302.593 73.5325 302.462 73.4671C302.332 73.4018 302.021 73.0588 301.531 72.4381C301.107 72.0788 300.862 71.8501 300.796 71.7521C300.6 71.4581 300.421 71.2458 300.257 71.1151C300.127 70.9845 300.045 70.6905 300.012 70.2331C299.882 70.0698 299.816 69.8575 299.816 69.5961L299.62 69.2041C299.62 68.9755 299.522 68.7958 299.326 68.6651C299.13 68.4691 299.032 68.2241 299.032 67.9301V67.5381C298.902 67.4728 298.869 67.2768 298.934 66.9501V65.6761L298.885 65.2351V64.8921C298.853 64.7615 298.885 64.4838 298.983 64.0591L298.934 63.6181C298.967 63.5855 299.016 63.3241 299.081 62.8341C299.212 62.1481 299.359 61.7235 299.522 61.5601V61.1191C299.555 61.0211 299.571 60.8905 299.571 60.7271C299.571 60.5638 299.604 60.3841 299.669 60.1881C299.767 59.9921 300.029 59.2571 300.453 57.9831L301.237 56.2681C301.466 55.7781 301.825 55.2391 302.315 54.6511C302.348 54.4878 302.479 54.1938 302.707 53.7691L303.344 53.1811C303.54 52.8871 303.834 52.6748 304.226 52.5441C304.684 52.3155 305.027 52.2011 305.255 52.2011L306.627 52.0051C306.791 52.0378 306.905 52.0541 306.97 52.0541H307.607C308.326 52.1195 308.914 52.2665 309.371 52.4951C310.351 52.7891 311.07 53.1648 311.527 53.6221C312.54 54.7655 313.046 55.8598 313.046 56.9051C313.046 57.9505 312.883 58.8488 312.556 59.6001C311.74 61.4621 311.152 62.6381 310.792 63.1281C310.204 64.2061 309.502 64.7451 308.685 64.7451ZM322.89 64.6961C322.269 68.0281 321.991 69.8575 322.057 70.1841C322.122 70.4781 322.22 70.6578 322.351 70.7231C322.514 70.7885 322.677 70.7885 322.841 70.7231C323.461 70.4618 323.902 69.9555 324.164 69.2041L325.291 67.4401C325.356 67.3748 325.438 67.1625 325.536 66.8031C325.797 66.3458 326.026 65.8395 326.222 65.2841C326.516 64.9901 326.728 64.6145 326.859 64.1571C327.316 63.2425 327.561 62.7361 327.594 62.6381C327.757 62.4748 327.855 62.0338 327.888 61.3151C327.953 60.5638 327.969 60.1555 327.937 60.0901C327.773 59.5021 327.659 59.1101 327.594 58.9141C327.43 58.8161 327.055 58.7018 326.467 58.5711C325.911 58.4078 325.585 58.3915 325.487 58.5221C325.421 58.5221 325.258 58.7345 324.997 59.1591C324.768 59.5838 324.539 60.1555 324.311 60.8741C323.951 61.6581 323.755 62.0665 323.723 62.0991L322.89 64.6961ZM333.278 56.1211L333.131 59.2571C333.131 59.3878 333.114 59.6165 333.082 59.9431L333.131 63.5201L333.425 66.4111C333.425 66.7378 333.474 67.1788 333.572 67.7341C333.67 68.2895 333.719 68.6161 333.719 68.7141C333.882 70.3801 334.062 71.4091 334.258 71.8011C334.454 72.6505 334.535 73.2221 334.503 73.5161C334.47 73.8101 334.29 74.1368 333.964 74.4961C332.592 74.9535 331.726 75.0678 331.367 74.8391C330.942 74.7738 330.534 74.5778 330.142 74.2511C329.75 73.9245 329.488 73.6631 329.358 73.4671C329.325 73.4345 329.145 72.8301 328.819 71.6541C328.819 71.6215 328.77 71.2621 328.672 70.5761C328.508 70.3148 328.459 69.9555 328.525 69.4981C327.969 70.4781 327.692 71.0008 327.692 71.0661C327.692 71.0988 327.675 71.1478 327.643 71.2131C327.61 71.2458 327.561 71.3438 327.496 71.5071C327.43 71.6378 327.267 71.8991 327.006 72.2911C326.875 72.5198 326.679 72.8791 326.418 73.3691C325.699 74.2511 324.654 74.6921 323.282 74.6921C321.714 74.6921 320.391 74.3818 319.313 73.7611C319.247 73.7611 319.198 73.7285 319.166 73.6631C319.002 73.5325 318.725 73.3691 318.333 73.1731C317.843 72.7811 317.434 72.0788 317.108 71.0661C317.075 71.0335 317.059 70.9191 317.059 70.7231L317.01 70.3311C317.01 69.8411 316.977 69.5308 316.912 69.4001C316.912 68.8775 317.091 67.8485 317.451 66.3131L319.117 61.7561C319.117 61.4295 319.264 60.8905 319.558 60.1391C319.982 58.8978 320.358 58.0321 320.685 57.5421C320.685 57.2155 321.142 56.4968 322.057 55.3861C322.187 55.0595 322.449 54.8471 322.841 54.7491C323.984 54.4878 324.98 54.4878 325.83 54.7491C325.993 54.7491 326.156 54.7818 326.32 54.8471C326.516 54.9125 326.728 54.9778 326.957 55.0431C327.185 55.1085 327.561 55.2881 328.084 55.5821C328.247 55.7455 328.427 55.8598 328.623 55.9251C329.08 52.3645 329.325 50.3391 329.358 49.8491C329.423 49.3918 329.635 48.4935 329.995 47.1541L330.191 45.6351C330.419 44.7858 330.73 44.0671 331.122 43.4791C331.154 43.1851 331.35 42.9238 331.71 42.6951C332.167 42.2378 332.902 42.3848 333.915 43.1361C333.98 43.2015 334.274 43.3975 334.797 43.7241C335.189 43.8548 335.434 44.0181 335.532 44.2141C335.662 44.7695 335.695 45.3575 335.63 45.9781C335.63 46.7295 335.515 47.6768 335.287 48.8201C335.058 49.9635 334.813 50.8945 334.552 51.6131C334.323 52.6911 333.898 54.1938 333.278 56.1211ZM342.113 41.6661C342.146 41.6335 342.456 41.5845 343.044 41.5191C343.991 41.3558 344.645 41.4211 345.004 41.7151C345.396 41.9765 345.674 42.2705 345.837 42.5971C345.902 43.6425 345.755 44.9981 345.396 46.6641C345.037 47.7421 344.726 48.5425 344.465 49.0651L343.975 49.8001C343.877 50.0615 343.665 50.3391 343.338 50.6331C343.011 50.9271 342.766 51.0741 342.603 51.0741C342.472 51.0415 342.227 50.9271 341.868 50.7311C341.541 50.5025 341.345 50.3391 341.28 50.2411C341.247 50.1431 341.215 50.0288 341.182 49.8981L340.937 48.9181L339.957 47.6931C339.761 47.3011 339.663 46.9091 339.663 46.5171C339.565 45.6025 339.679 44.9001 340.006 44.4101C340.006 44.3448 340.055 44.1815 340.153 43.9201C340.316 43.2015 340.97 42.4501 342.113 41.6661ZM340.643 63.6671C340.643 63.3731 340.692 62.9811 340.79 62.4911C340.921 61.9685 340.953 61.6091 340.888 61.4131C340.855 61.2171 340.855 60.6618 340.888 59.7471C340.986 59.3551 341.002 58.9141 340.937 58.4241C340.708 57.7055 340.643 57.1828 340.741 56.8561C340.839 56.5295 341.051 56.1701 341.378 55.7781C341.705 55.3535 342.064 55.0595 342.456 54.8961C342.848 54.7328 343.436 54.7491 344.22 54.9451C344.416 55.0431 344.743 55.3698 345.2 55.9251C345.298 56.0231 345.412 56.3988 345.543 57.0521C345.706 57.7055 345.804 58.4241 345.837 59.2081C345.902 59.9595 345.951 61.0701 345.984 62.5401C346.017 63.9775 346.082 65.9211 346.18 68.3711C346.278 70.7885 346.294 72.2911 346.229 72.8791C346.196 73.4671 345.984 73.9081 345.592 74.2021C345.233 74.5288 344.906 74.5941 344.612 74.3981C344.351 74.2348 344.073 74.1205 343.779 74.0551C343.256 74.0551 342.799 73.8428 342.407 73.4181C342.276 73.3855 341.966 73.2385 341.476 72.9771C340.986 72.6831 340.676 72.1605 340.545 71.4091C340.382 71.0825 340.333 70.0208 340.398 68.2241V66.4601L340.643 64.7941V63.6671ZM360.124 59.0121L359.879 58.5711C359.487 58.5711 358.752 59.3715 357.674 60.9721C356.4 62.7035 355.501 64.4185 354.979 66.1171C354.619 67.1298 354.407 67.9628 354.342 68.6161C354.342 69.5635 354.538 70.1841 354.93 70.4781C355.093 70.4781 355.273 70.3638 355.469 70.1351C355.697 69.9065 355.828 69.7431 355.861 69.6451C356.089 69.5145 356.383 69.1388 356.743 68.5181C357.167 67.8975 357.396 67.5708 357.429 67.5381L357.87 66.6071L358.703 65.1861C358.637 65.1861 358.735 64.8105 358.997 64.0591C359.389 63.3731 359.601 62.8505 359.634 62.4911L360.124 59.0121ZM349.785 70.8701C349.687 69.4655 349.703 68.3875 349.834 67.6361C350.585 64.8921 351.173 62.8015 351.598 61.3641C351.598 61.3315 351.712 60.9231 351.941 60.1391C352.3 58.9958 352.627 58.2445 352.921 57.8851C352.921 57.7871 353.051 57.5258 353.313 57.1011C353.313 56.8071 353.672 56.3008 354.391 55.5821L354.93 54.9941C355.518 54.4715 356.351 54.2101 357.429 54.2101C357.821 54.1448 358.278 54.1611 358.801 54.2591C359.748 54.6838 360.826 55.3208 362.035 56.1701L362.525 56.4641C362.786 56.5295 363.031 56.6111 363.26 56.7091C363.39 56.7091 363.668 56.7745 364.093 56.9051L364.73 57.3951C365.024 57.5911 365.203 57.8688 365.269 58.2281C365.073 58.4241 364.975 59.0611 364.975 60.1391C364.844 61.5438 364.942 63.1935 365.269 65.0881C365.399 66.8521 365.71 68.7141 366.2 70.6741C366.2 70.8375 366.314 71.2785 366.543 71.9971C366.804 72.7158 366.918 73.1731 366.886 73.3691C366.886 74.1858 366.118 74.5941 364.583 74.5941C363.08 74.4961 362.035 73.8428 361.447 72.6341C361.414 72.5035 361.3 72.2421 361.104 71.8501C360.712 71.4581 360.499 71.1315 360.467 70.8701L360.369 70.1841C360.238 70.0861 360.156 69.9555 360.124 69.7921C359.732 70.3475 359.242 70.9191 358.654 71.5071L357.625 73.1241L357.233 73.5161C357.2 73.6468 356.857 73.7938 356.204 73.9571C355.55 74.1531 355.077 74.1858 354.783 74.0551C354.619 74.0551 354.391 74.0225 354.097 73.9571L351.941 73.0751C351.451 72.9445 351.091 72.7158 350.863 72.3891C350.438 72.1278 350.226 71.9808 350.226 71.9481C349.899 71.3928 349.752 71.0335 349.785 70.8701ZM374.236 56.0721L374.285 55.6311C373.599 55.5658 373.109 55.5168 372.815 55.4841C372.554 55.4188 372.113 55.3535 371.492 55.2881C370.872 55.2228 370.382 55.1248 370.022 54.9941C369.336 54.7655 368.944 54.1775 368.846 53.2301C368.748 52.2501 369.059 51.6458 369.777 51.4171C370.431 51.2538 370.888 51.1721 371.149 51.1721C371.411 51.1721 371.901 51.1395 372.619 51.0741C372.979 50.8781 373.469 50.7638 374.089 50.7311L374.824 50.5351C374.824 50.5678 374.955 50.5351 375.216 50.4371L375.461 49.4081C375.461 48.8855 375.608 48.3628 375.902 47.8401C375.902 47.6115 376.115 46.9745 376.539 45.9291C376.539 45.7985 376.833 44.8511 377.421 43.0871C377.552 42.9238 378.042 42.5481 378.891 41.9601C379.414 41.6988 380.149 41.8785 381.096 42.4991C381.619 42.7278 381.978 43.0381 382.174 43.4301C381.978 43.6261 381.88 44.0835 381.88 44.8021C381.848 45.0308 381.619 46.2395 381.194 48.4281V49.8001C381.456 49.8328 381.88 49.9145 382.468 50.0451C383.089 50.1758 383.824 50.3228 384.673 50.4861C386.307 50.8128 387.336 51.4661 387.76 52.4461C387.924 53.1648 387.891 53.6711 387.662 53.9651C387.434 54.2591 386.878 54.4715 385.996 54.6021C385.278 54.6348 384.33 54.6511 383.154 54.6511C382.011 54.6511 381.162 54.7328 380.606 54.8961C380.541 55.4841 380.508 55.9415 380.508 56.2681L380.459 57.0031C380.459 57.2318 380.312 58.4405 380.018 60.6291C379.822 60.9231 379.659 62.4421 379.528 65.1861V68.7631C379.528 69.3511 379.577 69.9065 379.675 70.4291C379.708 71.1478 379.79 71.6541 379.92 71.9481C379.92 72.2421 380.002 72.8628 380.165 73.8101C379.773 74.7575 379.12 75.2311 378.205 75.2311C377.323 75.2311 376.539 74.9045 375.853 74.2511L375.314 73.4671C375.216 73.2058 375.135 73.0261 375.069 72.9281C375.037 72.8301 375.004 72.7158 374.971 72.5851C374.743 71.9318 374.563 71.5235 374.432 71.3601C374.236 71.0988 374.138 70.9028 374.138 70.7721C374.138 70.6415 374.138 70.4781 374.138 70.2821C374.073 69.7268 373.991 69.2531 373.893 68.8611C373.73 68.6978 373.648 68.1425 373.648 67.1951C373.714 65.4638 373.714 64.4675 373.648 64.2061C373.746 64.1081 373.763 63.4875 373.697 62.3441L373.844 61.2661C373.844 61.1355 373.91 60.6455 374.04 59.7961C373.975 59.6655 373.959 59.3225 373.991 58.7671C374.024 58.1791 374.073 57.7708 374.138 57.5421C374.204 57.1501 374.236 56.6601 374.236 56.0721ZM397.836 57.6891C397.967 57.1991 397.951 56.5785 397.787 55.8271C397.559 55.6311 397.248 55.5331 396.856 55.5331C396.366 55.5331 395.925 55.9905 395.533 56.9051C395.011 57.6891 394.619 58.5548 394.357 59.5021H394.308C393.949 60.8741 393.769 61.6091 393.769 61.7071C394.292 61.8378 394.717 61.9031 395.043 61.9031C395.37 61.8705 395.746 61.6908 396.17 61.3641C396.922 60.6455 397.477 59.4205 397.836 57.6891ZM397.689 64.7451L395.876 64.8921C394.864 64.8921 394.063 64.7941 393.475 64.5981L393.622 65.5291C393.72 68.2405 394.472 70.0208 395.876 70.8701C396.268 71.0335 396.595 71.1151 396.856 71.1151C397.118 71.1151 397.461 70.9845 397.885 70.7231C398.016 70.5925 398.13 70.4128 398.228 70.1841C398.261 69.8901 398.424 69.7595 398.718 69.7921C400.058 68.0935 401.07 67.4238 401.756 67.7831C402.442 68.2405 402.785 68.5998 402.785 68.8611C402.785 68.9918 402.704 69.1388 402.54 69.3021V69.5961C402.54 69.9228 402.328 70.5108 401.903 71.3601C401.511 72.2095 401.087 72.9281 400.629 73.5161C400.401 74.0061 400.107 74.3491 399.747 74.5451C398.702 75.1985 397.591 75.4598 396.415 75.3291C396.154 75.2965 395.974 75.2311 395.876 75.1331C395.615 75.0678 395.419 75.0515 395.288 75.0841L394.896 75.0351C394.602 75.0351 394.357 74.9698 394.161 74.8391C393.835 74.6431 393.606 74.5451 393.475 74.5451C392.626 74.2185 392.103 73.9735 391.907 73.8101C391.744 73.6468 391.597 73.5325 391.466 73.4671C391.336 73.4018 391.025 73.0588 390.535 72.4381C390.111 72.0788 389.866 71.8501 389.8 71.7521C389.604 71.4581 389.425 71.2458 389.261 71.1151C389.131 70.9845 389.049 70.6905 389.016 70.2331C388.886 70.0698 388.82 69.8575 388.82 69.5961L388.624 69.2041C388.624 68.9755 388.526 68.7958 388.33 68.6651C388.134 68.4691 388.036 68.2241 388.036 67.9301V67.5381C387.906 67.4728 387.873 67.2768 387.938 66.9501V65.6761L387.889 65.2351V64.8921C387.857 64.7615 387.889 64.4838 387.987 64.0591L387.938 63.6181C387.971 63.5855 388.02 63.3241 388.085 62.8341C388.216 62.1481 388.363 61.7235 388.526 61.5601V61.1191C388.559 61.0211 388.575 60.8905 388.575 60.7271C388.575 60.5638 388.608 60.3841 388.673 60.1881C388.771 59.9921 389.033 59.2571 389.457 57.9831L390.241 56.2681C390.47 55.7781 390.829 55.2391 391.319 54.6511C391.352 54.4878 391.483 54.1938 391.711 53.7691L392.348 53.1811C392.544 52.8871 392.838 52.6748 393.23 52.5441C393.688 52.3155 394.031 52.2011 394.259 52.2011L395.631 52.0051C395.795 52.0378 395.909 52.0541 395.974 52.0541H396.611C397.33 52.1195 397.918 52.2665 398.375 52.4951C399.355 52.7891 400.074 53.1648 400.531 53.6221C401.544 54.7655 402.05 55.8598 402.05 56.9051C402.05 57.9505 401.887 58.8488 401.56 59.6001C400.744 61.4621 400.156 62.6381 399.796 63.1281C399.208 64.2061 398.506 64.7451 397.689 64.7451ZM427.917 70.3801C427.917 70.1188 427.786 69.8738 427.525 69.6451C427.263 69.3838 427.133 69.1061 427.133 68.8121C427.133 68.4855 427.067 67.9628 426.937 67.2441C427.002 67.1135 426.986 66.6398 426.888 65.8231C426.92 65.7578 426.904 65.2841 426.839 64.4021C426.806 63.5201 426.79 62.7361 426.79 62.0501L426.3 62.9321C425.254 65.4801 424.732 66.8195 424.732 66.9501L423.605 70.3801L423.311 71.5561C423.049 72.4055 423 73.2711 423.164 74.1531C423.229 74.4471 422.886 74.7575 422.135 75.0841C421.939 75.0841 421.449 74.9861 420.665 74.7901C420.403 74.7901 420.142 74.7901 419.881 74.7901C419.652 74.8228 418.982 74.6595 417.872 74.3001C417.872 74.1695 417.61 73.8918 417.088 73.4671L416.941 70.0861C416.941 69.3675 417.039 68.2568 417.235 66.7541V65.5291L417.431 63.9121L417.676 60.8741V59.8941C416.794 62.4095 416.206 64.0428 415.912 64.7941C415.912 65.1861 415.552 66.5091 414.834 68.7631C414.148 71.5725 413.87 73.3855 414.001 74.2021C414.001 74.3981 413.935 74.5451 413.805 74.6431C413.707 74.7738 413.429 74.9535 412.972 75.1821C412.253 75.1821 411.159 75.0351 409.689 74.7411L408.807 74.3491C408.513 74.2511 408.251 73.8591 408.023 73.1731C407.794 72.4871 407.663 71.8991 407.631 71.4091C407.5 71.2458 407.435 70.8701 407.435 70.2821L407.386 69.6941C407.157 66.1988 407.043 63.7978 407.043 62.4911C407.108 62.2951 407.141 61.9685 407.141 61.5111V60.1391C407.141 59.5511 407.173 58.7835 407.239 57.8361C407.337 56.8888 407.386 56.2028 407.386 55.7781L407.337 54.1611C407.467 53.6385 408.153 53.3118 409.395 53.1811C409.95 53.1811 410.424 53.2791 410.816 53.4751C411.469 53.8998 411.877 54.4061 412.041 54.9941C412.237 55.5821 412.351 56.3335 412.384 57.2481C412.416 58.1628 412.416 58.9305 412.384 59.5511C412.351 61.3151 412.433 62.5565 412.629 63.2751C412.825 62.8831 413.086 62.1971 413.413 61.2171C413.478 61.1518 413.821 60.2861 414.442 58.6201L415.471 55.5331C416.222 54.5205 416.63 53.9978 416.696 53.9651C416.794 53.8998 417.055 53.8508 417.48 53.8181C417.97 53.7855 418.525 53.9161 419.146 54.2101C419.799 54.4715 420.142 54.6185 420.175 54.6511C420.24 54.6511 420.534 54.8145 421.057 55.1411C421.285 55.3371 421.498 55.7128 421.694 56.2681C421.89 56.8235 421.988 57.2808 421.988 57.6401C422.053 58.9468 422.086 59.6328 422.086 59.6981V60.2861C422.02 62.2461 422.069 63.3241 422.233 63.5201C422.461 62.6708 422.902 61.5765 423.556 60.2371L424.046 58.9631L425.026 56.9541C424.993 56.8561 425.173 56.3988 425.565 55.5821L426.055 54.0631C426.349 53.0505 427.165 52.2501 428.505 51.6621C428.766 51.6621 429.387 51.8418 430.367 52.2011C431.02 52.2011 431.608 52.6421 432.131 53.5241C432.359 53.8835 432.474 54.3571 432.474 54.9451C432.474 55.0758 432.425 55.8761 432.327 57.3461V58.9141C432.261 59.3061 432.245 59.6491 432.278 59.9431L432.229 61.4621V64.3531C432.229 64.7451 432.212 65.0065 432.18 65.1371L432.327 67.8811C432.457 68.1098 432.523 68.4365 432.523 68.8611C432.719 70.4945 433.111 71.7358 433.699 72.5851L434.042 73.2221C433.29 74.5288 432.114 74.9208 430.514 74.3981C430.383 74.1695 430.203 73.9735 429.975 73.8101C429.779 73.6468 429.501 73.3855 429.142 73.0261C429.142 72.9935 428.913 72.6505 428.456 71.9971C428.456 71.6051 428.276 71.0661 427.917 70.3801ZM447.341 55.3861C447.276 55.2228 447.047 55.1575 446.655 55.1901C446.296 55.2228 446.018 55.4188 445.822 55.7781C444.483 57.9015 443.764 60.1718 443.666 62.5891C444.777 62.8505 445.724 62.3605 446.508 61.1191C447.521 57.9178 447.798 56.0068 447.341 55.3861ZM443.519 74.8391L443.029 74.7411L442.343 74.0551C442.147 74.0551 442 73.9735 441.902 73.8101C441.543 73.3855 440.889 72.5361 439.942 71.2621L439.207 68.5671C439.207 68.0445 439.109 67.5871 438.913 67.1951C438.586 65.7251 438.39 64.8921 438.325 64.6961C438.26 64.4675 438.211 63.8631 438.178 62.8831C438.178 61.9031 438.227 61.1845 438.325 60.7271C438.423 60.1065 439.027 58.5711 440.138 56.1211C440.432 55.8271 440.612 55.4351 440.677 54.9451L441.461 53.8181C442.18 52.9688 442.947 52.3481 443.764 51.9561C443.764 51.8908 444.319 51.7275 445.43 51.4661C445.659 51.4335 446.181 51.5151 446.998 51.7111C448.958 52.1685 450.183 52.7401 450.673 53.4261L450.82 53.6711C451.441 54.5531 451.8 55.9088 451.898 57.7381C451.8 58.5548 451.718 59.2408 451.653 59.7961C451.588 60.3515 451.228 61.3641 450.575 62.8341C450.085 63.7488 449.611 64.4838 449.154 65.0391C448.435 65.5618 447.945 65.8231 447.684 65.8231C447.553 65.8885 447.276 65.9211 446.851 65.9211H445.724C445.626 65.8885 445.414 65.8721 445.087 65.8721C444.76 65.8721 444.287 65.7905 443.666 65.6271C443.666 66.3458 443.862 67.3748 444.254 68.7141C444.679 70.0208 445.022 70.8211 445.283 71.1151C445.969 71.6378 446.508 71.9808 446.9 72.1441C447.292 72.3075 447.815 72.3401 448.468 72.2421C449.121 72.1115 449.595 71.8828 449.889 71.5561L451.163 69.9881C451.98 68.8775 452.813 68.7795 453.662 69.6941C454.054 70.1188 454.201 70.5435 454.103 70.9681C454.038 71.3601 453.711 72.1605 453.123 73.3691C452.633 74.1531 452.11 74.8065 451.555 75.3291C450.542 75.8518 449.938 76.1131 449.742 76.1131C449.448 76.1458 448.991 76.0968 448.37 75.9661C448.043 76.1295 447.488 76.1131 446.704 75.9171C446.704 75.8518 446.606 75.8028 446.41 75.7701C446.247 75.7701 446.018 75.7211 445.724 75.6231L445.822 75.5741C445.757 75.5741 445.561 75.5741 445.234 75.5741L443.862 74.8391H443.519ZM462.089 67.5871C462.383 66.9011 462.693 66.1008 463.02 65.1861L464.098 62.4421L464.539 61.6091C457.907 69.4491 457.973 69.3675 464.735 61.3641L466.009 58.7181C466.107 58.6201 466.188 58.4078 466.254 58.0811L467.528 56.1701L468.508 55.2881C468.704 55.1901 468.916 55.0268 469.145 54.7981C469.21 54.8635 469.471 54.7981 469.929 54.6021C470.223 54.6021 470.811 54.6511 471.693 54.7491L472.673 55.0921L474.878 56.4151C475.335 56.8725 475.531 57.3625 475.466 57.8851C475.433 58.2771 475.253 59.3551 474.927 61.1191C474.665 62.5238 474.29 64.1408 473.8 65.9701C473.538 67.4401 473.457 68.5018 473.555 69.1551C473.653 69.8085 473.702 70.1841 473.702 70.2821C473.767 70.4781 473.849 70.7558 473.947 71.1151C474.077 71.4745 474.11 71.6705 474.045 71.7031C474.273 71.7358 474.388 71.8991 474.388 72.1931C474.649 72.8791 474.731 73.3365 474.633 73.5651C474.567 73.8265 474.355 74.1041 473.996 74.3981C473.669 74.6921 473.065 74.8391 472.183 74.8391C471.66 74.7738 471.235 74.7411 470.909 74.7411C470.615 74.7411 470.239 74.6268 469.782 74.3981C468.834 73.7121 468.295 73.0098 468.165 72.2911C468.001 71.8338 467.903 71.4908 467.871 71.2621C467.838 71.0335 467.822 70.8701 467.822 70.7721C467.658 69.7921 467.675 68.7795 467.871 67.7341C467.903 67.3421 468.05 66.5418 468.312 65.3331C468.573 64.0918 468.834 63.1118 469.096 62.3931C469.096 61.6745 469.079 61.2988 469.047 61.2661L467.136 64.9901C466.94 65.5128 466.76 65.9048 466.597 66.1661C466.433 66.3295 466.352 66.5255 466.352 66.7541C466.09 67.0155 465.845 67.5381 465.617 68.3221C465.617 68.5508 465.6 68.7141 465.568 68.8121C465.535 68.9101 465.404 69.1551 465.176 69.5471C464.98 69.9065 464.833 70.2495 464.735 70.5761C464.669 70.9028 464.473 71.2621 464.147 71.6541C464.147 71.7848 463.934 72.4545 463.51 73.6631C463.477 73.7938 463.134 73.9081 462.481 74.0061L461.55 73.9081C461.321 73.8428 460.782 73.6795 459.933 73.4181C459.083 73.1568 458.61 73.0261 458.512 73.0261C458.446 73.0261 458.381 72.9935 458.316 72.9281C457.76 72.7975 457.417 72.3401 457.287 71.5561V70.7721C457.45 70.5761 457.466 70.2005 457.336 69.6451C457.401 69.3185 457.45 68.9428 457.483 68.5181C457.385 68.4528 457.368 68.3385 457.434 68.1751C457.499 67.1298 457.532 66.3948 457.532 65.9701V64.7941C457.597 63.7161 457.679 62.5565 457.777 61.3151C457.875 60.0738 457.924 59.2735 457.924 58.9141V57.9341C457.858 57.7708 457.842 57.3951 457.875 56.8071C457.809 56.1865 457.728 55.8108 457.63 55.6801C457.532 55.5168 457.499 55.2881 457.532 54.9941L457.875 54.1611C458.397 53.7365 459.279 53.6548 460.521 53.9161C461.076 54.0141 461.844 54.3408 462.824 54.8961C462.889 54.9941 463.052 55.2065 463.314 55.5331C463.51 55.5331 463.624 55.8108 463.657 56.3661C463.624 56.6601 463.608 56.9051 463.608 57.1011C463.575 57.1338 463.395 57.8851 463.069 59.3551C462.35 63.8958 461.991 66.3621 461.991 66.7541C461.991 67.1461 462.023 67.4238 462.089 67.5871ZM483.003 56.0721L483.052 55.6311C482.366 55.5658 481.876 55.5168 481.582 55.4841C481.321 55.4188 480.88 55.3535 480.259 55.2881C479.638 55.2228 479.148 55.1248 478.789 54.9941C478.103 54.7655 477.711 54.1775 477.613 53.2301C477.515 52.2501 477.825 51.6458 478.544 51.4171C479.197 51.2538 479.655 51.1721 479.916 51.1721C480.177 51.1721 480.667 51.1395 481.386 51.0741C481.745 50.8781 482.235 50.7638 482.856 50.7311L483.591 50.5351C483.591 50.5678 483.722 50.5351 483.983 50.4371L484.228 49.4081C484.228 48.8855 484.375 48.3628 484.669 47.8401C484.669 47.6115 484.881 46.9745 485.306 45.9291C485.306 45.7985 485.6 44.8511 486.188 43.0871C486.319 42.9238 486.809 42.5481 487.658 41.9601C488.181 41.6988 488.916 41.8785 489.863 42.4991C490.386 42.7278 490.745 43.0381 490.941 43.4301C490.745 43.6261 490.647 44.0835 490.647 44.8021C490.614 45.0308 490.386 46.2395 489.961 48.4281V49.8001C490.222 49.8328 490.647 49.9145 491.235 50.0451C491.856 50.1758 492.591 50.3228 493.44 50.4861C495.073 50.8128 496.102 51.4661 496.527 52.4461C496.69 53.1648 496.658 53.6711 496.429 53.9651C496.2 54.2591 495.645 54.4715 494.763 54.6021C494.044 54.6348 493.097 54.6511 491.921 54.6511C490.778 54.6511 489.928 54.7328 489.373 54.8961C489.308 55.4841 489.275 55.9415 489.275 56.2681L489.226 57.0031C489.226 57.2318 489.079 58.4405 488.785 60.6291C488.589 60.9231 488.426 62.4421 488.295 65.1861V68.7631C488.295 69.3511 488.344 69.9065 488.442 70.4291C488.475 71.1478 488.556 71.6541 488.687 71.9481C488.687 72.2421 488.769 72.8628 488.932 73.8101C488.54 74.7575 487.887 75.2311 486.972 75.2311C486.09 75.2311 485.306 74.9045 484.62 74.2511L484.081 73.4671C483.983 73.2058 483.901 73.0261 483.836 72.9281C483.803 72.8301 483.771 72.7158 483.738 72.5851C483.509 71.9318 483.33 71.5235 483.199 71.3601C483.003 71.0988 482.905 70.9028 482.905 70.7721C482.905 70.6415 482.905 70.4781 482.905 70.2821C482.84 69.7268 482.758 69.2531 482.66 68.8611C482.497 68.6978 482.415 68.1425 482.415 67.1951C482.48 65.4638 482.48 64.4675 482.415 64.2061C482.513 64.1081 482.529 63.4875 482.464 62.3441L482.611 61.2661C482.611 61.1355 482.676 60.6455 482.807 59.7961C482.742 59.6655 482.725 59.3225 482.758 58.7671C482.791 58.1791 482.84 57.7708 482.905 57.5421C482.97 57.1501 483.003 56.6601 483.003 56.0721ZM495.431 70.9191C495.529 70.5925 495.774 70.2495 496.166 69.8901C496.591 69.4981 497.015 69.3021 497.44 69.3021C497.865 69.3021 498.24 69.2368 498.567 69.1061C498.894 68.9755 499.188 68.9101 499.449 68.9101C499.743 68.9101 500.184 68.9918 500.772 69.1551C501.393 69.2858 501.801 69.3675 501.997 69.4001C502.226 69.4328 502.405 69.4655 502.536 69.4981C502.699 69.5308 502.846 69.6451 502.977 69.8411C503.14 70.0371 503.222 70.2821 503.222 70.5761C502.732 72.7648 501.948 74.1531 500.87 74.7411L499.4 74.9861C498.975 74.9861 498.502 74.7575 497.979 74.3001C496.934 74.2021 496.411 73.9571 496.411 73.5651C496.411 73.4998 496.231 73.2548 495.872 72.8301C495.513 72.4055 495.333 72.0625 495.333 71.8011C495.333 71.5398 495.366 71.2458 495.431 70.9191ZM503.81 38.5301L503.369 42.2051C503.238 43.8711 502.928 46.9908 502.438 51.5641C501.948 56.1375 501.703 59.2571 501.703 60.9231C501.703 62.5565 501.801 63.6181 501.997 64.1081C501.638 64.7288 501.18 65.0391 500.625 65.0391C500.331 65.0391 500.086 65.0065 499.89 64.9411C499.694 64.8758 499.563 64.8431 499.498 64.8431H499.302L499.106 64.7941C498.355 63.6181 497.93 62.5728 497.832 61.6581C497.277 60.3188 496.966 59.4695 496.901 59.1101C496.868 58.7181 496.803 58.4568 496.705 58.3261C496.607 56.9541 496.558 56.2191 496.558 56.1211V54.0631C496.689 53.2465 496.754 52.3971 496.754 51.5151V50.7801C496.754 50.1268 496.885 49.1795 497.146 47.9381C497.407 46.6641 497.538 45.6188 497.538 44.8021C497.538 43.9528 497.783 42.9728 498.273 41.8621C498.796 40.7515 499.139 39.9675 499.302 39.5101C499.498 39.0528 499.629 38.7261 499.694 38.5301C499.759 38.3341 499.841 38.1545 499.939 37.9911C500.102 37.7298 500.315 37.5991 500.576 37.5991C501.066 37.4031 501.409 37.3051 501.605 37.3051C503.075 37.3051 503.81 37.7135 503.81 38.5301Z" fill="#FF7C3D"/>
</svg>
